<?xml version="1.0" standalone="no"?>
<svg xmlns="http://www.w3.org/2000/svg" version="1.1" width="495" height="495">
	<!-- Created with https://api.qrserver.com (QR Code API, see goQR.me/api for information) -->
	<title>QR Code</title>
	<desc>https://dreamliner-menu-app.onrender.com/oak-restaurant</desc>
	<rect style="fill:rgb(255, 255, 255);fill-opacity:1" x="0" y="0" width="495" height="495" />
	<g id="elements">
		<path style="fill:rgb(0, 0, 0)" d="M 0,0 l 15,0 0,15 -15,0 z M 15,0 l 15,0 0,15 -15,0 z M 30,0 l 15,0 0,15 -15,0 z M 45,0 l 15,0 0,15 -15,0 z M 60,0 l 15,0 0,15 -15,0 z M 75,0 l 15,0 0,15 -15,0 z M 90,0 l 15,0 0,15 -15,0 z M 150,0 l 15,0 0,15 -15,0 z M 180,0 l 15,0 0,15 -15,0 z M 195,0 l 15,0 0,15 -15,0 z M 210,0 l 15,0 0,15 -15,0 z M 225,0 l 15,0 0,15 -15,0 z M 255,0 l 15,0 0,15 -15,0 z M 270,0 l 15,0 0,15 -15,0 z M 285,0 l 15,0 0,15 -15,0 z M 300,0 l 15,0 0,15 -15,0 z M 345,0 l 15,0 0,15 -15,0 z M 360,0 l 15,0 0,15 -15,0 z M 390,0 l 15,0 0,15 -15,0 z M 405,0 l 15,0 0,15 -15,0 z M 420,0 l 15,0 0,15 -15,0 z M 435,0 l 15,0 0,15 -15,0 z M 450,0 l 15,0 0,15 -15,0 z M 465,0 l 15,0 0,15 -15,0 z M 480,0 l 15,0 0,15 -15,0 z M 0,15 l 15,0 0,15 -15,0 z M 90,15 l 15,0 0,15 -15,0 z M 120,15 l 15,0 0,15 -15,0 z M 150,15 l 15,0 0,15 -15,0 z M 195,15 l 15,0 0,15 -15,0 z M 210,15 l 15,0 0,15 -15,0 z M 225,15 l 15,0 0,15 -15,0 z M 240,15 l 15,0 0,15 -15,0 z M 255,15 l 15,0 0,15 -15,0 z M 270,15 l 15,0 0,15 -15,0 z M 300,15 l 15,0 0,15 -15,0 z M 330,15 l 15,0 0,15 -15,0 z M 360,15 l 15,0 0,15 -15,0 z M 390,15 l 15,0 0,15 -15,0 z M 480,15 l 15,0 0,15 -15,0 z M 0,30 l 15,0 0,15 -15,0 z M 30,30 l 15,0 0,15 -15,0 z M 45,30 l 15,0 0,15 -15,0 z M 60,30 l 15,0 0,15 -15,0 z M 90,30 l 15,0 0,15 -15,0 z M 180,30 l 15,0 0,15 -15,0 z M 195,30 l 15,0 0,15 -15,0 z M 225,30 l 15,0 0,15 -15,0 z M 315,30 l 15,0 0,15 -15,0 z M 360,30 l 15,0 0,15 -15,0 z M 390,30 l 15,0 0,15 -15,0 z M 420,30 l 15,0 0,15 -15,0 z M 435,30 l 15,0 0,15 -15,0 z M 450,30 l 15,0 0,15 -15,0 z M 480,30 l 15,0 0,15 -15,0 z M 0,45 l 15,0 0,15 -15,0 z M 30,45 l 15,0 0,15 -15,0 z M 45,45 l 15,0 0,15 -15,0 z M 60,45 l 15,0 0,15 -15,0 z M 90,45 l 15,0 0,15 -15,0 z M 120,45 l 15,0 0,15 -15,0 z M 135,45 l 15,0 0,15 -15,0 z M 150,45 l 15,0 0,15 -15,0 z M 180,45 l 15,0 0,15 -15,0 z M 210,45 l 15,0 0,15 -15,0 z M 225,45 l 15,0 0,15 -15,0 z M 255,45 l 15,0 0,15 -15,0 z M 270,45 l 15,0 0,15 -15,0 z M 330,45 l 15,0 0,15 -15,0 z M 390,45 l 15,0 0,15 -15,0 z M 420,45 l 15,0 0,15 -15,0 z M 435,45 l 15,0 0,15 -15,0 z M 450,45 l 15,0 0,15 -15,0 z M 480,45 l 15,0 0,15 -15,0 z M 0,60 l 15,0 0,15 -15,0 z M 30,60 l 15,0 0,15 -15,0 z M 45,60 l 15,0 0,15 -15,0 z M 60,60 l 15,0 0,15 -15,0 z M 90,60 l 15,0 0,15 -15,0 z M 135,60 l 15,0 0,15 -15,0 z M 225,60 l 15,0 0,15 -15,0 z M 240,60 l 15,0 0,15 -15,0 z M 255,60 l 15,0 0,15 -15,0 z M 270,60 l 15,0 0,15 -15,0 z M 285,60 l 15,0 0,15 -15,0 z M 300,60 l 15,0 0,15 -15,0 z M 345,60 l 15,0 0,15 -15,0 z M 390,60 l 15,0 0,15 -15,0 z M 420,60 l 15,0 0,15 -15,0 z M 435,60 l 15,0 0,15 -15,0 z M 450,60 l 15,0 0,15 -15,0 z M 480,60 l 15,0 0,15 -15,0 z M 0,75 l 15,0 0,15 -15,0 z M 90,75 l 15,0 0,15 -15,0 z M 120,75 l 15,0 0,15 -15,0 z M 135,75 l 15,0 0,15 -15,0 z M 165,75 l 15,0 0,15 -15,0 z M 180,75 l 15,0 0,15 -15,0 z M 300,75 l 15,0 0,15 -15,0 z M 330,75 l 15,0 0,15 -15,0 z M 360,75 l 15,0 0,15 -15,0 z M 390,75 l 15,0 0,15 -15,0 z M 480,75 l 15,0 0,15 -15,0 z M 0,90 l 15,0 0,15 -15,0 z M 15,90 l 15,0 0,15 -15,0 z M 30,90 l 15,0 0,15 -15,0 z M 45,90 l 15,0 0,15 -15,0 z M 60,90 l 15,0 0,15 -15,0 z M 75,90 l 15,0 0,15 -15,0 z M 90,90 l 15,0 0,15 -15,0 z M 120,90 l 15,0 0,15 -15,0 z M 150,90 l 15,0 0,15 -15,0 z M 180,90 l 15,0 0,15 -15,0 z M 210,90 l 15,0 0,15 -15,0 z M 240,90 l 15,0 0,15 -15,0 z M 270,90 l 15,0 0,15 -15,0 z M 300,90 l 15,0 0,15 -15,0 z M 330,90 l 15,0 0,15 -15,0 z M 360,90 l 15,0 0,15 -15,0 z M 390,90 l 15,0 0,15 -15,0 z M 405,90 l 15,0 0,15 -15,0 z M 420,90 l 15,0 0,15 -15,0 z M 435,90 l 15,0 0,15 -15,0 z M 450,90 l 15,0 0,15 -15,0 z M 465,90 l 15,0 0,15 -15,0 z M 480,90 l 15,0 0,15 -15,0 z M 135,105 l 15,0 0,15 -15,0 z M 150,105 l 15,0 0,15 -15,0 z M 165,105 l 15,0 0,15 -15,0 z M 210,105 l 15,0 0,15 -15,0 z M 240,105 l 15,0 0,15 -15,0 z M 285,105 l 15,0 0,15 -15,0 z M 300,105 l 15,0 0,15 -15,0 z M 315,105 l 15,0 0,15 -15,0 z M 330,105 l 15,0 0,15 -15,0 z M 360,105 l 15,0 0,15 -15,0 z M 0,120 l 15,0 0,15 -15,0 z M 15,120 l 15,0 0,15 -15,0 z M 30,120 l 15,0 0,15 -15,0 z M 45,120 l 15,0 0,15 -15,0 z M 60,120 l 15,0 0,15 -15,0 z M 90,120 l 15,0 0,15 -15,0 z M 105,120 l 15,0 0,15 -15,0 z M 120,120 l 15,0 0,15 -15,0 z M 135,120 l 15,0 0,15 -15,0 z M 165,120 l 15,0 0,15 -15,0 z M 240,120 l 15,0 0,15 -15,0 z M 255,120 l 15,0 0,15 -15,0 z M 285,120 l 15,0 0,15 -15,0 z M 330,120 l 15,0 0,15 -15,0 z M 375,120 l 15,0 0,15 -15,0 z M 405,120 l 15,0 0,15 -15,0 z M 435,120 l 15,0 0,15 -15,0 z M 465,120 l 15,0 0,15 -15,0 z M 0,135 l 15,0 0,15 -15,0 z M 15,135 l 15,0 0,15 -15,0 z M 30,135 l 15,0 0,15 -15,0 z M 45,135 l 15,0 0,15 -15,0 z M 75,135 l 15,0 0,15 -15,0 z M 105,135 l 15,0 0,15 -15,0 z M 120,135 l 15,0 0,15 -15,0 z M 150,135 l 15,0 0,15 -15,0 z M 180,135 l 15,0 0,15 -15,0 z M 195,135 l 15,0 0,15 -15,0 z M 210,135 l 15,0 0,15 -15,0 z M 225,135 l 15,0 0,15 -15,0 z M 285,135 l 15,0 0,15 -15,0 z M 300,135 l 15,0 0,15 -15,0 z M 345,135 l 15,0 0,15 -15,0 z M 390,135 l 15,0 0,15 -15,0 z M 450,135 l 15,0 0,15 -15,0 z M 465,135 l 15,0 0,15 -15,0 z M 480,135 l 15,0 0,15 -15,0 z M 0,150 l 15,0 0,15 -15,0 z M 45,150 l 15,0 0,15 -15,0 z M 90,150 l 15,0 0,15 -15,0 z M 120,150 l 15,0 0,15 -15,0 z M 150,150 l 15,0 0,15 -15,0 z M 195,150 l 15,0 0,15 -15,0 z M 210,150 l 15,0 0,15 -15,0 z M 225,150 l 15,0 0,15 -15,0 z M 240,150 l 15,0 0,15 -15,0 z M 255,150 l 15,0 0,15 -15,0 z M 270,150 l 15,0 0,15 -15,0 z M 300,150 l 15,0 0,15 -15,0 z M 330,150 l 15,0 0,15 -15,0 z M 375,150 l 15,0 0,15 -15,0 z M 390,150 l 15,0 0,15 -15,0 z M 435,150 l 15,0 0,15 -15,0 z M 465,150 l 15,0 0,15 -15,0 z M 0,165 l 15,0 0,15 -15,0 z M 15,165 l 15,0 0,15 -15,0 z M 30,165 l 15,0 0,15 -15,0 z M 180,165 l 15,0 0,15 -15,0 z M 195,165 l 15,0 0,15 -15,0 z M 225,165 l 15,0 0,15 -15,0 z M 270,165 l 15,0 0,15 -15,0 z M 285,165 l 15,0 0,15 -15,0 z M 300,165 l 15,0 0,15 -15,0 z M 315,165 l 15,0 0,15 -15,0 z M 360,165 l 15,0 0,15 -15,0 z M 390,165 l 15,0 0,15 -15,0 z M 405,165 l 15,0 0,15 -15,0 z M 420,165 l 15,0 0,15 -15,0 z M 450,165 l 15,0 0,15 -15,0 z M 0,180 l 15,0 0,15 -15,0 z M 45,180 l 15,0 0,15 -15,0 z M 90,180 l 15,0 0,15 -15,0 z M 135,180 l 15,0 0,15 -15,0 z M 150,180 l 15,0 0,15 -15,0 z M 180,180 l 15,0 0,15 -15,0 z M 210,180 l 15,0 0,15 -15,0 z M 225,180 l 15,0 0,15 -15,0 z M 255,180 l 15,0 0,15 -15,0 z M 285,180 l 15,0 0,15 -15,0 z M 330,180 l 15,0 0,15 -15,0 z M 360,180 l 15,0 0,15 -15,0 z M 375,180 l 15,0 0,15 -15,0 z M 405,180 l 15,0 0,15 -15,0 z M 420,180 l 15,0 0,15 -15,0 z M 435,180 l 15,0 0,15 -15,0 z M 0,195 l 15,0 0,15 -15,0 z M 60,195 l 15,0 0,15 -15,0 z M 105,195 l 15,0 0,15 -15,0 z M 225,195 l 15,0 0,15 -15,0 z M 240,195 l 15,0 0,15 -15,0 z M 270,195 l 15,0 0,15 -15,0 z M 285,195 l 15,0 0,15 -15,0 z M 315,195 l 15,0 0,15 -15,0 z M 330,195 l 15,0 0,15 -15,0 z M 345,195 l 15,0 0,15 -15,0 z M 390,195 l 15,0 0,15 -15,0 z M 465,195 l 15,0 0,15 -15,0 z M 480,195 l 15,0 0,15 -15,0 z M 0,210 l 15,0 0,15 -15,0 z M 45,210 l 15,0 0,15 -15,0 z M 75,210 l 15,0 0,15 -15,0 z M 90,210 l 15,0 0,15 -15,0 z M 150,210 l 15,0 0,15 -15,0 z M 165,210 l 15,0 0,15 -15,0 z M 180,210 l 15,0 0,15 -15,0 z M 300,210 l 15,0 0,15 -15,0 z M 375,210 l 15,0 0,15 -15,0 z M 405,210 l 15,0 0,15 -15,0 z M 465,210 l 15,0 0,15 -15,0 z M 0,225 l 15,0 0,15 -15,0 z M 15,225 l 15,0 0,15 -15,0 z M 30,225 l 15,0 0,15 -15,0 z M 60,225 l 15,0 0,15 -15,0 z M 105,225 l 15,0 0,15 -15,0 z M 120,225 l 15,0 0,15 -15,0 z M 165,225 l 15,0 0,15 -15,0 z M 210,225 l 15,0 0,15 -15,0 z M 240,225 l 15,0 0,15 -15,0 z M 300,225 l 15,0 0,15 -15,0 z M 315,225 l 15,0 0,15 -15,0 z M 375,225 l 15,0 0,15 -15,0 z M 420,225 l 15,0 0,15 -15,0 z M 450,225 l 15,0 0,15 -15,0 z M 0,240 l 15,0 0,15 -15,0 z M 15,240 l 15,0 0,15 -15,0 z M 45,240 l 15,0 0,15 -15,0 z M 60,240 l 15,0 0,15 -15,0 z M 75,240 l 15,0 0,15 -15,0 z M 90,240 l 15,0 0,15 -15,0 z M 135,240 l 15,0 0,15 -15,0 z M 165,240 l 15,0 0,15 -15,0 z M 255,240 l 15,0 0,15 -15,0 z M 285,240 l 15,0 0,15 -15,0 z M 330,240 l 15,0 0,15 -15,0 z M 345,240 l 15,0 0,15 -15,0 z M 360,240 l 15,0 0,15 -15,0 z M 375,240 l 15,0 0,15 -15,0 z M 405,240 l 15,0 0,15 -15,0 z M 420,240 l 15,0 0,15 -15,0 z M 465,240 l 15,0 0,15 -15,0 z M 30,255 l 15,0 0,15 -15,0 z M 75,255 l 15,0 0,15 -15,0 z M 105,255 l 15,0 0,15 -15,0 z M 120,255 l 15,0 0,15 -15,0 z M 135,255 l 15,0 0,15 -15,0 z M 150,255 l 15,0 0,15 -15,0 z M 180,255 l 15,0 0,15 -15,0 z M 195,255 l 15,0 0,15 -15,0 z M 210,255 l 15,0 0,15 -15,0 z M 225,255 l 15,0 0,15 -15,0 z M 285,255 l 15,0 0,15 -15,0 z M 300,255 l 15,0 0,15 -15,0 z M 315,255 l 15,0 0,15 -15,0 z M 345,255 l 15,0 0,15 -15,0 z M 360,255 l 15,0 0,15 -15,0 z M 375,255 l 15,0 0,15 -15,0 z M 390,255 l 15,0 0,15 -15,0 z M 435,255 l 15,0 0,15 -15,0 z M 465,255 l 15,0 0,15 -15,0 z M 480,255 l 15,0 0,15 -15,0 z M 15,270 l 15,0 0,15 -15,0 z M 90,270 l 15,0 0,15 -15,0 z M 135,270 l 15,0 0,15 -15,0 z M 150,270 l 15,0 0,15 -15,0 z M 195,270 l 15,0 0,15 -15,0 z M 210,270 l 15,0 0,15 -15,0 z M 225,270 l 15,0 0,15 -15,0 z M 255,270 l 15,0 0,15 -15,0 z M 270,270 l 15,0 0,15 -15,0 z M 300,270 l 15,0 0,15 -15,0 z M 315,270 l 15,0 0,15 -15,0 z M 330,270 l 15,0 0,15 -15,0 z M 435,270 l 15,0 0,15 -15,0 z M 465,270 l 15,0 0,15 -15,0 z M 30,285 l 15,0 0,15 -15,0 z M 45,285 l 15,0 0,15 -15,0 z M 60,285 l 15,0 0,15 -15,0 z M 105,285 l 15,0 0,15 -15,0 z M 120,285 l 15,0 0,15 -15,0 z M 150,285 l 15,0 0,15 -15,0 z M 180,285 l 15,0 0,15 -15,0 z M 195,285 l 15,0 0,15 -15,0 z M 225,285 l 15,0 0,15 -15,0 z M 240,285 l 15,0 0,15 -15,0 z M 285,285 l 15,0 0,15 -15,0 z M 300,285 l 15,0 0,15 -15,0 z M 315,285 l 15,0 0,15 -15,0 z M 330,285 l 15,0 0,15 -15,0 z M 390,285 l 15,0 0,15 -15,0 z M 420,285 l 15,0 0,15 -15,0 z M 450,285 l 15,0 0,15 -15,0 z M 0,300 l 15,0 0,15 -15,0 z M 30,300 l 15,0 0,15 -15,0 z M 90,300 l 15,0 0,15 -15,0 z M 105,300 l 15,0 0,15 -15,0 z M 135,300 l 15,0 0,15 -15,0 z M 180,300 l 15,0 0,15 -15,0 z M 210,300 l 15,0 0,15 -15,0 z M 225,300 l 15,0 0,15 -15,0 z M 240,300 l 15,0 0,15 -15,0 z M 255,300 l 15,0 0,15 -15,0 z M 285,300 l 15,0 0,15 -15,0 z M 330,300 l 15,0 0,15 -15,0 z M 405,300 l 15,0 0,15 -15,0 z M 420,300 l 15,0 0,15 -15,0 z M 465,300 l 15,0 0,15 -15,0 z M 0,315 l 15,0 0,15 -15,0 z M 30,315 l 15,0 0,15 -15,0 z M 60,315 l 15,0 0,15 -15,0 z M 120,315 l 15,0 0,15 -15,0 z M 135,315 l 15,0 0,15 -15,0 z M 150,315 l 15,0 0,15 -15,0 z M 240,315 l 15,0 0,15 -15,0 z M 285,315 l 15,0 0,15 -15,0 z M 300,315 l 15,0 0,15 -15,0 z M 345,315 l 15,0 0,15 -15,0 z M 390,315 l 15,0 0,15 -15,0 z M 435,315 l 15,0 0,15 -15,0 z M 465,315 l 15,0 0,15 -15,0 z M 480,315 l 15,0 0,15 -15,0 z M 0,330 l 15,0 0,15 -15,0 z M 45,330 l 15,0 0,15 -15,0 z M 90,330 l 15,0 0,15 -15,0 z M 150,330 l 15,0 0,15 -15,0 z M 165,330 l 15,0 0,15 -15,0 z M 180,330 l 15,0 0,15 -15,0 z M 225,330 l 15,0 0,15 -15,0 z M 300,330 l 15,0 0,15 -15,0 z M 330,330 l 15,0 0,15 -15,0 z M 360,330 l 15,0 0,15 -15,0 z M 375,330 l 15,0 0,15 -15,0 z M 390,330 l 15,0 0,15 -15,0 z M 435,330 l 15,0 0,15 -15,0 z M 465,330 l 15,0 0,15 -15,0 z M 0,345 l 15,0 0,15 -15,0 z M 60,345 l 15,0 0,15 -15,0 z M 75,345 l 15,0 0,15 -15,0 z M 135,345 l 15,0 0,15 -15,0 z M 150,345 l 15,0 0,15 -15,0 z M 165,345 l 15,0 0,15 -15,0 z M 210,345 l 15,0 0,15 -15,0 z M 240,345 l 15,0 0,15 -15,0 z M 270,345 l 15,0 0,15 -15,0 z M 285,345 l 15,0 0,15 -15,0 z M 315,345 l 15,0 0,15 -15,0 z M 345,345 l 15,0 0,15 -15,0 z M 375,345 l 15,0 0,15 -15,0 z M 405,345 l 15,0 0,15 -15,0 z M 435,345 l 15,0 0,15 -15,0 z M 450,345 l 15,0 0,15 -15,0 z M 0,360 l 15,0 0,15 -15,0 z M 30,360 l 15,0 0,15 -15,0 z M 45,360 l 15,0 0,15 -15,0 z M 75,360 l 15,0 0,15 -15,0 z M 90,360 l 15,0 0,15 -15,0 z M 105,360 l 15,0 0,15 -15,0 z M 150,360 l 15,0 0,15 -15,0 z M 165,360 l 15,0 0,15 -15,0 z M 255,360 l 15,0 0,15 -15,0 z M 330,360 l 15,0 0,15 -15,0 z M 345,360 l 15,0 0,15 -15,0 z M 360,360 l 15,0 0,15 -15,0 z M 375,360 l 15,0 0,15 -15,0 z M 390,360 l 15,0 0,15 -15,0 z M 405,360 l 15,0 0,15 -15,0 z M 420,360 l 15,0 0,15 -15,0 z M 480,360 l 15,0 0,15 -15,0 z M 120,375 l 15,0 0,15 -15,0 z M 135,375 l 15,0 0,15 -15,0 z M 150,375 l 15,0 0,15 -15,0 z M 180,375 l 15,0 0,15 -15,0 z M 195,375 l 15,0 0,15 -15,0 z M 210,375 l 15,0 0,15 -15,0 z M 240,375 l 15,0 0,15 -15,0 z M 270,375 l 15,0 0,15 -15,0 z M 285,375 l 15,0 0,15 -15,0 z M 300,375 l 15,0 0,15 -15,0 z M 315,375 l 15,0 0,15 -15,0 z M 360,375 l 15,0 0,15 -15,0 z M 420,375 l 15,0 0,15 -15,0 z M 435,375 l 15,0 0,15 -15,0 z M 450,375 l 15,0 0,15 -15,0 z M 480,375 l 15,0 0,15 -15,0 z M 0,390 l 15,0 0,15 -15,0 z M 15,390 l 15,0 0,15 -15,0 z M 30,390 l 15,0 0,15 -15,0 z M 45,390 l 15,0 0,15 -15,0 z M 60,390 l 15,0 0,15 -15,0 z M 75,390 l 15,0 0,15 -15,0 z M 90,390 l 15,0 0,15 -15,0 z M 120,390 l 15,0 0,15 -15,0 z M 150,390 l 15,0 0,15 -15,0 z M 195,390 l 15,0 0,15 -15,0 z M 210,390 l 15,0 0,15 -15,0 z M 225,390 l 15,0 0,15 -15,0 z M 240,390 l 15,0 0,15 -15,0 z M 270,390 l 15,0 0,15 -15,0 z M 315,390 l 15,0 0,15 -15,0 z M 330,390 l 15,0 0,15 -15,0 z M 345,390 l 15,0 0,15 -15,0 z M 360,390 l 15,0 0,15 -15,0 z M 390,390 l 15,0 0,15 -15,0 z M 420,390 l 15,0 0,15 -15,0 z M 450,390 l 15,0 0,15 -15,0 z M 465,390 l 15,0 0,15 -15,0 z M 0,405 l 15,0 0,15 -15,0 z M 90,405 l 15,0 0,15 -15,0 z M 150,405 l 15,0 0,15 -15,0 z M 180,405 l 15,0 0,15 -15,0 z M 195,405 l 15,0 0,15 -15,0 z M 225,405 l 15,0 0,15 -15,0 z M 285,405 l 15,0 0,15 -15,0 z M 300,405 l 15,0 0,15 -15,0 z M 315,405 l 15,0 0,15 -15,0 z M 345,405 l 15,0 0,15 -15,0 z M 360,405 l 15,0 0,15 -15,0 z M 420,405 l 15,0 0,15 -15,0 z M 435,405 l 15,0 0,15 -15,0 z M 450,405 l 15,0 0,15 -15,0 z M 465,405 l 15,0 0,15 -15,0 z M 480,405 l 15,0 0,15 -15,0 z M 0,420 l 15,0 0,15 -15,0 z M 30,420 l 15,0 0,15 -15,0 z M 45,420 l 15,0 0,15 -15,0 z M 60,420 l 15,0 0,15 -15,0 z M 90,420 l 15,0 0,15 -15,0 z M 120,420 l 15,0 0,15 -15,0 z M 135,420 l 15,0 0,15 -15,0 z M 150,420 l 15,0 0,15 -15,0 z M 180,420 l 15,0 0,15 -15,0 z M 210,420 l 15,0 0,15 -15,0 z M 225,420 l 15,0 0,15 -15,0 z M 255,420 l 15,0 0,15 -15,0 z M 285,420 l 15,0 0,15 -15,0 z M 330,420 l 15,0 0,15 -15,0 z M 360,420 l 15,0 0,15 -15,0 z M 375,420 l 15,0 0,15 -15,0 z M 390,420 l 15,0 0,15 -15,0 z M 405,420 l 15,0 0,15 -15,0 z M 420,420 l 15,0 0,15 -15,0 z M 435,420 l 15,0 0,15 -15,0 z M 465,420 l 15,0 0,15 -15,0 z M 0,435 l 15,0 0,15 -15,0 z M 30,435 l 15,0 0,15 -15,0 z M 45,435 l 15,0 0,15 -15,0 z M 60,435 l 15,0 0,15 -15,0 z M 90,435 l 15,0 0,15 -15,0 z M 120,435 l 15,0 0,15 -15,0 z M 135,435 l 15,0 0,15 -15,0 z M 150,435 l 15,0 0,15 -15,0 z M 240,435 l 15,0 0,15 -15,0 z M 285,435 l 15,0 0,15 -15,0 z M 315,435 l 15,0 0,15 -15,0 z M 345,435 l 15,0 0,15 -15,0 z M 360,435 l 15,0 0,15 -15,0 z M 375,435 l 15,0 0,15 -15,0 z M 405,435 l 15,0 0,15 -15,0 z M 420,435 l 15,0 0,15 -15,0 z M 450,435 l 15,0 0,15 -15,0 z M 465,435 l 15,0 0,15 -15,0 z M 480,435 l 15,0 0,15 -15,0 z M 0,450 l 15,0 0,15 -15,0 z M 30,450 l 15,0 0,15 -15,0 z M 45,450 l 15,0 0,15 -15,0 z M 60,450 l 15,0 0,15 -15,0 z M 90,450 l 15,0 0,15 -15,0 z M 120,450 l 15,0 0,15 -15,0 z M 135,450 l 15,0 0,15 -15,0 z M 150,450 l 15,0 0,15 -15,0 z M 165,450 l 15,0 0,15 -15,0 z M 180,450 l 15,0 0,15 -15,0 z M 225,450 l 15,0 0,15 -15,0 z M 315,450 l 15,0 0,15 -15,0 z M 330,450 l 15,0 0,15 -15,0 z M 345,450 l 15,0 0,15 -15,0 z M 360,450 l 15,0 0,15 -15,0 z M 390,450 l 15,0 0,15 -15,0 z M 0,465 l 15,0 0,15 -15,0 z M 90,465 l 15,0 0,15 -15,0 z M 120,465 l 15,0 0,15 -15,0 z M 165,465 l 15,0 0,15 -15,0 z M 210,465 l 15,0 0,15 -15,0 z M 285,465 l 15,0 0,15 -15,0 z M 315,465 l 15,0 0,15 -15,0 z M 330,465 l 15,0 0,15 -15,0 z M 375,465 l 15,0 0,15 -15,0 z M 390,465 l 15,0 0,15 -15,0 z M 435,465 l 15,0 0,15 -15,0 z M 450,465 l 15,0 0,15 -15,0 z M 0,480 l 15,0 0,15 -15,0 z M 15,480 l 15,0 0,15 -15,0 z M 30,480 l 15,0 0,15 -15,0 z M 45,480 l 15,0 0,15 -15,0 z M 60,480 l 15,0 0,15 -15,0 z M 75,480 l 15,0 0,15 -15,0 z M 90,480 l 15,0 0,15 -15,0 z M 120,480 l 15,0 0,15 -15,0 z M 135,480 l 15,0 0,15 -15,0 z M 150,480 l 15,0 0,15 -15,0 z M 165,480 l 15,0 0,15 -15,0 z M 225,480 l 15,0 0,15 -15,0 z M 240,480 l 15,0 0,15 -15,0 z M 255,480 l 15,0 0,15 -15,0 z M 300,480 l 15,0 0,15 -15,0 z M 330,480 l 15,0 0,15 -15,0 z M 345,480 l 15,0 0,15 -15,0 z M 360,480 l 15,0 0,15 -15,0 z M 375,480 l 15,0 0,15 -15,0 z M 465,480 l 15,0 0,15 -15,0 z " />
	</g>
</svg>
